<svg width="512" height="512" viewBox="0 0 512 512" fill="none" xmlns="http://www.w3.org/2000/svg">
  <rect width="512" height="512" fill="#030405"/>
  <path d="M88 368V132H206C256 132 286 160 286 204C286 249 255 277 204 277H145V368H88ZM145 230H195C218 230 230 221 230 204C230 187 218 179 195 179H145V230Z" fill="#F6F8F8"/>
  <path d="M291 368V316C318 330 348 337 379 337C408 337 422 330 422 316C422 305 414 298 397 294L357 285C314 276 292 252 292 214C292 187 302 166 323 151C343 136 371 128 407 128C435 128 459 132 480 141V192C457 181 432 176 405 176C369 176 351 185 351 202C351 213 360 220 377 224L416 233C459 243 481 267 481 305C481 332 472 354 452 369C432 384 404 392 369 392C337 392 311 384 291 368Z" fill="#6DE8FF"/>
  <path d="M68 408H444" stroke="#B8905D" stroke-width="12"/>
</svg>
